<svg xmlns="http://www.w3.org/2000/svg" viewBox="0 0 160 150">
<defs><radialGradient id="an" cx="0.5" cy="0.5" r="0.6" fx="0.35" fy="0.25"><stop offset="0" stop-color="#d4a060"/><stop offset="0.45" stop-color="#a26a30"/><stop offset="0.85" stop-color="#653c15"/><stop offset="1" stop-color="#3b220b"/></radialGradient><radialGradient id="ac" cx="0.5" cy="0.5" r="0.65" fx="0.4" fy="0.2"><stop offset="0" stop-color="#a3855a"/><stop offset="0.6" stop-color="#775c35"/><stop offset="1" stop-color="#463218"/></radialGradient><clipPath id="anc"><path d="M-18,-6 C-18,16 -9,30 0,30 C9,30 18,16 18,-6 Z"/></clipPath><pattern id="as" width="7" height="5" patternUnits="userSpaceOnUse"><path d="M0,5 Q3.5,-1 7,5" fill="none" stroke="#3a2410" stroke-width="0.8" opacity="0.5"/><path d="M3.5,2.5 Q5.3,0 7,2.5 M0,2.5 Q1.7,0 3.5,2.5" fill="none" stroke="#fff3d8" stroke-width="0.5" opacity="0.25"/></pattern></defs>
<g transform="translate(52 86) rotate(-24) scale(1)"><path d="M-1,-5.5 Q-19.2,-5.9 -18.1,3.3 Q-16.9,12.4 -13.4,20.7 Q-9.9,28.9 -4.8,30.2 Q0.3,31.5 5,30.1 Q9.7,28.7 12.8,20 Q16,11.4 16.6,3.1 Q17.2,-5.1 -1,-5.5 Z" fill="url(#an)"/><ellipse cy="30" rx="2.2" ry="1.6" fill="#3a2410"/><g clip-path="url(#anc)"><path d="M6.1,13.3 Q6.6,15.1 5.1,15 Q3.6,14.9 -0.2,15 Q-4,15.1 -4.9,14.8 Q-5.8,14.4 -3.9,13.2 Q-2,11.9 1.8,11.8 Q5.7,11.6 6.1,13.3 Z" fill="#2a1606" opacity="0.2"/><path d="M-3.4,14.3 Q-3.8,16.2 -7.1,17 Q-10.4,17.8 -13.2,16.9 Q-16.1,16.1 -16.2,14.5 Q-16.2,12.9 -13.1,11.3 Q-9.9,9.7 -6.5,11 Q-3,12.4 -3.4,14.3 Z" fill="#2a1606" opacity="0.2"/><path d="M-7.7,11.7 Q-10.7,12.1 -12.3,9.6 Q-13.9,7.1 -12.8,5.2 Q-11.8,3.3 -9.5,3.3 Q-7.2,3.3 -4.5,4.5 Q-1.7,5.7 -3.2,8.5 Q-4.7,11.3 -7.7,11.7 Z" fill="#2a1606" opacity="0.2"/><path d="M2.7,6 l-0.9,2.7" stroke="#f5dcb0" stroke-width="0.4" opacity="0.4"/><path d="M3.9,7.7 l-1.2,2" stroke="#f5dcb0" stroke-width="0.6" opacity="0.3"/><path d="M4.4,11.5 l1.7,1.6" stroke="#f5dcb0" stroke-width="0.6" opacity="0.4"/></g></g>
<g transform="translate(52 86) rotate(-24) scale(1)"><path d="M-14.7,-3.1 Q-19.4,-4.4 -18.3,-11.4 Q-17.2,-18.4 -13.2,-23 Q-9.2,-27.6 -4.6,-27.9 Q0,-28.3 4.8,-27.8 Q9.7,-27.4 13.5,-22.6 Q17.2,-17.7 19.1,-10.8 Q20.9,-3.9 15.7,-2 Q10.5,0 0.3,-0.9 Q-10,-1.7 -14.7,-3.1 Z" fill="url(#ac)"/><path d="M-14.5,-2.2 Q-19.7,-3.8 -19.2,-10.7 Q-18.7,-17.7 -14.5,-22.6 Q-10.3,-27.4 -4.9,-27.7 Q0.4,-28 4.9,-27.4 Q9.4,-26.8 13.3,-22.2 Q17.2,-17.5 18.6,-10.3 Q20.1,-3 15.3,-2.1 Q10.5,-1.2 0.6,-0.9 Q-9.3,-0.6 -14.5,-2.2 Z" fill="url(#as)"/><path d="M-20,-4 C-12,0 12,0 20,-4" fill="none" stroke="#3a2410" stroke-width="1.2"/><path d="M0,-28 C2,-32 7,-35 8,-39" fill="none" stroke="#4a3018" stroke-width="2.4" stroke-linecap="round"/></g>
<g transform="translate(104 98) rotate(32) scale(0.74)"><path d="M-0.2,-5.9 Q-18.2,-6.2 -17.2,2.4 Q-16.3,11 -13,19.9 Q-9.6,28.8 -4.8,30.2 Q0,31.7 4,30.4 Q8,29.1 12.1,20 Q16.3,11 17,2.7 Q17.8,-5.6 -0.2,-5.9 Z" fill="url(#an)"/><ellipse cy="30" rx="2.2" ry="1.6" fill="#3a2410"/><g clip-path="url(#anc)"><path d="M5.5,16.5 Q5.5,17.5 2.5,18.4 Q-0.4,19.3 -3.6,18.9 Q-6.7,18.4 -6.4,16.5 Q-6.1,14.5 -2.6,13.7 Q0.8,13 3.2,14.2 Q5.6,15.5 5.5,16.5 Z" fill="#2a1606" opacity="0.1"/><path d="M-8.7,19.6 Q-13.1,20.5 -15.4,18.4 Q-17.7,16.2 -15.8,12.7 Q-13.9,9.2 -10.9,9 Q-7.9,8.7 -5.7,11.4 Q-3.6,14 -4,16.4 Q-4.3,18.7 -8.7,19.6 Z" fill="#2a1606" opacity="0.2"/><path d="M9.1,20.5 Q7.4,20.8 6.8,19 Q6.1,17.1 7.5,15 Q8.9,12.9 10,13.8 Q11,14.7 11.8,16.3 Q12.7,18 11.7,19.1 Q10.8,20.2 9.1,20.5 Z" fill="#2a1606" opacity="0.2"/><path d="M-1,4.8 l-1.6,3" stroke="#f5dcb0" stroke-width="0.7" opacity="0.3"/><path d="M-7.1,2.3 l-3.4,0.6" stroke="#f5dcb0" stroke-width="0.5" opacity="0.2"/><path d="M-6.2,9.5 l5.9,0.5" stroke="#f5dcb0" stroke-width="0.8" opacity="0.3"/></g></g>
<g transform="translate(136 56) rotate(150) scale(0.8)"><path d="M-14.8,-2.2 Q-19.8,-4.2 -19.1,-11 Q-18.4,-17.8 -14.6,-22 Q-10.9,-26.2 -5.4,-26.7 Q0.1,-27.2 5.5,-27 Q10.8,-26.8 14.5,-22.2 Q18.2,-17.6 19.5,-11.3 Q20.9,-5 15.3,-3.3 Q9.7,-1.6 -0.1,-0.9 Q-9.8,-0.1 -14.8,-2.2 Z" fill="url(#ac)"/><path d="M-14.9,-2.6 Q-20.7,-4.7 -19.7,-11.6 Q-18.7,-18.5 -14.8,-22.8 Q-10.8,-27 -5.2,-27.4 Q0.4,-27.7 5.2,-27.4 Q10,-27 13.9,-22.1 Q17.8,-17.2 18.9,-10.5 Q20,-3.9 14.8,-2.9 Q9.6,-2 0.2,-1.3 Q-9.2,-0.5 -14.9,-2.6 Z" fill="url(#as)"/><path d="M-19,-4 C-12,2 12,2 19,-4 C12,-9 -12,-9 -19,-4 Z" fill="#3a2410"/><path d="M-14,-4 C-8,-1 8,-1 14,-4" fill="none" stroke="#6e5230" stroke-width="1"/><path d="M0,-28 C2,-32 7,-35 12,-36" fill="none" stroke="#4a3018" stroke-width="2.4" stroke-linecap="round"/></g>
</svg>
